<svg xmlns="http://www.w3.org/2000/svg" viewBox="0 0 380 600"><defs><style>.cls-1{isolation:isolate;}.cls-2{fill:#9fb8bd;--backup-fill:#9fb8bd;}.cls-3{fill:#d0dddf;--backup-fill:#d0dddf;}.cls-4{mix-blend-mode:multiply;}.cls-5{opacity:0.3;}.cls-6{fill:#fff;--backup-fill:#fff;}</style></defs><g class="cls-1"><g id="animals_1"><g id="hood_red"><path class="cls-2" d="M123.176,225.5c12.963.335,35.6,4.784,35.706.543a55.263,55.263,0,1,0-90.661,40.977A55.272,55.272,0,0,1,123.176,225.5Z"></path><path d="M123.174,225.579c-.685.49-4.23.6-9.305,1.528a57.551,57.551,0,0,0-17.881,6.621,54.4,54.4,0,0,0-16.256,14.453,51.188,51.188,0,0,0-5.038,8.419l-.916,2a8.381,8.381,0,0,0-.4.967q-.2.559-.394,1.1c-.344.942-.692,1.824-.97,2.82q-.432,1.41-.828,2.7l-1.413,4.377-.366,1.119-.046.141-.108-.089-.217-.18-.437-.36-1.768-1.466c-1.21-.984-2.344-2.02-3.557-3.06A22.275,22.275,0,0,1,61.526,265L59.8,263.26c-.677-.662-.91-.977-1.32-1.432l-1.128-1.29c-.734-.877-1.421-1.8-2.135-2.7-.669-.939-1.324-1.9-1.98-2.855-.6-.994-1.23-1.979-1.809-3a57.889,57.889,0,0,1-7.406-27.4,59.784,59.784,0,0,1,47.618-59.312,59.846,59.846,0,0,1,24.067.05,58.954,58.954,0,0,1,37.272,25.327,58.3,58.3,0,0,1,8.253,19.627q.251,1.269.5,2.53l.243,1.255c.062.421.087.847.132,1.268.149,1.689.333,3.358.43,5.012q-.011,1.421-.02,2.828v1.971c0,.162,0,.329,0,.485l-.08.432-.16.86a3.92,3.92,0,0,1-.543,1.531,4.085,4.085,0,0,1-1.19,1.227,8.274,8.274,0,0,1-3.19,1.238,21.86,21.86,0,0,1-3.6.251c-.884-.016-1.62-.063-2.406-.122-1.541-.117-3.025-.285-4.481-.47-2.907-.376-5.7-.82-8.41-1.261-5.417-.877-10.523-1.791-15.305-2.3a96.632,96.632,0,0,1,15.776-1.715l9-.409c1.5-.083,3-.179,4.438-.332.353-.044.718-.073,1.056-.127a.475.475,0,0,0,.162-.037l.095-.031.185-.07a2.823,2.823,0,0,0,.6-.316.679.679,0,0,0,.329-.48,2.7,2.7,0,0,0-.2-.614l-.106-.206-.05-.087-.013-.02-.014-.124-.029-.253a16.59,16.59,0,0,0-.275-1.993q-.42-1.953-.779-3.8a13.088,13.088,0,0,0-.468-1.792q-.256-.873-.5-1.717l-.462-1.654c-.146-.54-.387-1.04-.563-1.545q-.569-1.5-1.034-2.861c-.716-1.771-1.437-3.279-1.884-4.58a50.375,50.375,0,0,0-8.786-13.838l-1.4-1.494a15.488,15.488,0,0,0-1.44-1.447l-3.066-2.684a53.079,53.079,0,0,0-6.735-4.468,47.768,47.768,0,0,0-14.917-5.454c-.646-.126-1.285-.3-1.935-.386l-1.956-.2-1.953-.2a13.3,13.3,0,0,0-1.95-.128l-3.9,0a12.443,12.443,0,0,0-1.931.121l-1.921.2-1.915.2c-.638.071-1.255.248-1.881.367-1.247.273-2.5.509-3.731.81a55.309,55.309,0,0,0-7.1,2.556,54.54,54.54,0,0,0-6.611,3.42c-1.038.663-2.023,1.4-3.032,2.092-.5.356-1.01.691-1.493,1.061l-1.384,1.189a51.213,51.213,0,0,0-9.6,10.581l-1.887,2.961a12.376,12.376,0,0,0-.843,1.525l-.783,1.55A51.079,51.079,0,0,0,53.58,206.9a11.524,11.524,0,0,0-.512,1.619l-.446,1.632-.445,1.624-.222.809-.137.827a48.893,48.893,0,0,0-.874,6.57q-.105,1.641-.21,3.267.032,1.629.063,3.244c.089,1.073.148,2.143.257,3.2.153,1.056.263,2.112.447,3.152a52.753,52.753,0,0,0,9.513,22.264c.581.79,1.161,1.577,1.8,2.311l.929,1.12a4.889,4.889,0,0,0,.328.37l.263.279c.351.377.695.743,1.018,1.035.325.312.646.621.988.9l.5.429c.037.021.091.1.115.075l.047-.163.094-.324.373-1.277c.121-.43.3-.8.461-1.238l.325-.823a12.266,12.266,0,0,1,.615-1.4A56.663,56.663,0,0,1,82.9,237.725a52,52,0,0,1,22.48-11.235l3.034-.622c1-.15,1.979-.238,2.918-.35a39.937,39.937,0,0,1,5.2-.292,30.188,30.188,0,0,1,4.059.143Z"></path><path class="cls-3" d="M102.438,206.836c-5.439-9.079-34.622-10.653-44.866,4.7a30.785,30.785,0,0,0,20.483,41.425"></path><path d="M78.044,253a6.72,6.72,0,0,1-2.943-.448,26.778,26.778,0,0,1-5.639-2.474,32.851,32.851,0,0,1-5.752-4.245,42.7,42.7,0,0,1-4.031-4.319,28.631,28.631,0,0,1-4.278-7.109,31.726,31.726,0,0,1-2.168-8.438,33.048,33.048,0,0,1,.216-8.845,31.752,31.752,0,0,1,1-4.293c.1-.352.208-.7.337-1.042l.41-1.136a2.508,2.508,0,0,1,.45-.793l.338-.481c.218-.3.425-.615.651-.908a27.041,27.041,0,0,1,12.2-8.559,38.948,38.948,0,0,1,13.6-2.246,35.357,35.357,0,0,1,12.227,2.167,20.952,20.952,0,0,1,4.994,2.667,10.847,10.847,0,0,1,3.425,3.949c-5.041-4.041-14.873-3.369-18.3-3.833a31.361,31.361,0,0,0-19.512,3.274,21.8,21.8,0,0,0-3.775,2.7,20.051,20.051,0,0,0-2.941,3.329.988.988,0,0,0-.172.343l-.2.521c-.133.346-.266.69-.369,1.044-.233.7-.435,1.4-.6,2.106a26.766,26.766,0,0,0-.683,4.215,29.722,29.722,0,0,0,2.77,15.226,33.582,33.582,0,0,0,8.213,10.675,50.947,50.947,0,0,0,5.773,4.389A40.714,40.714,0,0,0,78.044,253Z"></path><g class="cls-4"><g class="cls-5"><path d="M276.715,341.231a.69.69,0,0,1-.223.543,1.425,1.425,0,0,1-1.059.111,10.4,10.4,0,0,1-1.377-.377,8.936,8.936,0,0,0-1.472-.383,1.059,1.059,0,0,0-.8.143c-.232.2-.192.564-.135.857a5.3,5.3,0,0,0,.295.907l.2.46.267.557c.751,1.5,1.734,3.076,2.791,4.794l-.657.586c-1.256-.995-2.371-2.088-3.637-3.143-.625-.525-1.266-1.053-1.939-1.522a9.885,9.885,0,0,0-1.024-.634,3.669,3.669,0,0,0-.5-.207l-.217-.052a.135.135,0,0,1-.106,0l.3-.817c1.288,1.889,1.528,4.212,3.934,8.109-.065.022-.08.064-.105.1s-.066.07-.049.123a1.358,1.358,0,0,1,0,.14l-.4-.192-1.543-.777c-1.012-.513-2.079-1.1-3.157-1.724l-2.572-1.47c-.772-.432-1.544-.858-2.292-1.208l.828-1.042c1.032,1.24,2.214,2.406,3.293,3.524l.819.84,1.106,1.169c.712.78,1.338,1.518,1.977,2.283-.03.034-.021.08-.085.1l-.232.061-.459.12c-.31.085-.592.139-.882.207a12.75,12.75,0,0,1-1.742.281l-.895.054c-.279.006-.643-.013-.862-.021-.423-.012-.826-.069-1.217-.107a15.545,15.545,0,0,1-4.3-1.231,12.259,12.259,0,0,1-4.017-2.876l1.675-1.159a21.791,21.791,0,0,0,3.32,3.744l.515.508.82.834c.281.281.543.566.8.853a11.014,11.014,0,0,1,.728.857l.339.428.276.406.545.818.547.848a9.292,9.292,0,0,1,.536.916c-1.535-.1-2.819-.154-4.442-.382l-1.269-.246-1.332-.336-1.019-.3-.82-.269a36.976,36.976,0,0,1-6.51-2.941l1.984-1.534a29.05,29.05,0,0,0,1.146,3.227c.058.132.117.262.181.39l.093.194.217.4a7,7,0,0,0,.46.763,6.866,6.866,0,0,0,.573.784c.87,1.066,2.08,2.369,3.134,3.555l-.5.021-.326.034c-.382-.016-.916-.066-1.371-.1-.907-.076-1.793-.136-2.729-.254a18.176,18.176,0,0,1-3.041-.718l-.616-.223-.46-.19c-.309-.124-.61-.264-.908-.412a24.869,24.869,0,0,1-6.353-4.644l2.41-1.821c.845,1.52,1.657,3.1,2.451,4.663l1.673,3.26,2.477,4.564c-.4-.046-1.029-.188-1.546-.283l-1.563-.308-1.562-.331c-.534-.132-1.1-.311-1.643-.464l-1.531-.556-.91-.384c-.6-.266-1.184-.545-1.756-.835-2.29-1.166-4.392-2.454-6.485-3.628l2-2.615a37.686,37.686,0,0,1,3.112,3.546c.777,1.007,1.508,2.046,2.183,3.114l.342.548.45.769c.3.514.591,1.027.853,1.534q.807,1.533,1.611,3.06l-3.582-.075c-.612-.056-1.23-.073-1.837-.161l-.906-.158c-.3-.052-.651-.108-.772-.15a19.414,19.414,0,0,1-4.052-1.467,22.811,22.811,0,0,1-6.664-5.039L228.223,360l4.156,5.9a42.215,42.215,0,0,1,3.5,5.36c2.057,2.323-1.52,1.173-3.022,1.143l-.7-.085-.757-.159a9.528,9.528,0,0,1-1.542-.4c-.523-.183-1.07-.329-1.57-.557-.356-.16-.6-.254-.9-.406a19.056,19.056,0,0,1-3.164-1.945,22.993,22.993,0,0,1-4.945-5.126l2.61-2.077a25.44,25.44,0,0,1,2.4,3.258c.345.565.677,1.132.974,1.71.156.286.295.578.438.867.16.331.217.456.5,1.093a32.267,32.267,0,0,1,1.15,3.12,6.793,6.793,0,0,1,.333,1.379l.073.6a1.2,1.2,0,0,1-.112.372c-.045.11-.084.242-.134.334l-.163.218c-.077.081-.055.127-.221.24a1.1,1.1,0,0,1-.289.139,2.174,2.174,0,0,1-1.551-.069,16.524,16.524,0,0,1-2.528-1.513c-.826-.563-1.913-1.343-2.188-1.55q-1.362-1-2.659-2c-.866-.669-1.714-1.337-2.546-2.016l-1.237-1.037-.617-.55a6.614,6.614,0,0,1-.712-.743l2.455-1.359a34.5,34.5,0,0,0,2.561,5.073l.346.627.364.694a16.253,16.253,0,0,1,.927,2.06l.172.5a1.556,1.556,0,0,1-.066.369,3.644,3.644,0,0,1-.092.359,2.7,2.7,0,0,1-.219.42,2.367,2.367,0,0,1-1.471,1.026,3.659,3.659,0,0,1-1.874-.081,8.081,8.081,0,0,1-.972-.386c-.156-.064-.331-.155-.466-.221l-.285-.143q-1.132-.583-2.184-1.215a39.526,39.526,0,0,1-3.914-2.695l1.752-1.039a11.866,11.866,0,0,1,.1,1.32c0,.21,0,.416-.01.618a7.259,7.259,0,0,1-.085.755,2.851,2.851,0,0,1-1.455,2.212,2.182,2.182,0,0,1-1.89-.076,4.145,4.145,0,0,1-.816-.526q-.189-.155-.366-.316l-.245-.231-1.624-1.564c-.627-.6-.673-.664-.941-.933l-.345-.35c-.012-.009-.035-.043-.038-.031l0,.054a.977.977,0,0,1-.006.108,1.007,1.007,0,0,1-.056.214.883.883,0,0,1-.128.243.623.623,0,0,1-.086.106,1.17,1.17,0,0,1-.155.144,2.606,2.606,0,0,1-1.3.618,2.092,2.092,0,0,1-1.946-.731,2.376,2.376,0,0,1-.279-.392,6.639,6.639,0,0,0-.448-.8.385.385,0,0,0-.37-.193.509.509,0,0,0-.295.275,2.449,2.449,0,0,1-.216.346,1.829,1.829,0,0,1-.43.392,2.755,2.755,0,0,1-1.536.5,5.288,5.288,0,0,1-2.428-.629,13.963,13.963,0,0,1-1.741-1.059l-1.505-1.013,1.7.854a14.059,14.059,0,0,0,1.9.866,4.6,4.6,0,0,0,2.216.284,1.923,1.923,0,0,0,1.012-.51,4.983,4.983,0,0,0,.741-1.134.958.958,0,0,1,.634-.559.935.935,0,0,1,.761.347,4.612,4.612,0,0,1,.578.716c.175.251.39.626.554.815a.852.852,0,0,0,1.038.246.982.982,0,0,0,.506-.448,7.534,7.534,0,0,0,.314-2.072.445.445,0,0,0,.394-.073l.062-.13c.043,0,.167.13.248.19l1.126.96,1.188,1.021.842.7,1.638,1.365c.245.17.539.341.787.166a.776.776,0,0,0,.222-.666c-.006-.018,0-.214-.009-.342s-.016-.287-.032-.434c-.03-.293-.074-.59-.13-.884l-.57-3,2.607,1.791a39.033,39.033,0,0,0,5.045,2.944l.637.3.317.145.159.07a.09.09,0,0,0,.037.012.352.352,0,0,0,.137.009.089.089,0,0,0,.058-.154.541.541,0,0,0-.059-.059l-.083-.131-.3-.525-1.222-2.053a23.707,23.707,0,0,1-1.937-3.942l2.44-1.23.331-.255c.086-.069.273-.23.221-.19l.013.014.051.056.149.148.329.305.619.548c1.659,1.439,3.418,2.834,5.154,4.171l1.2.91.2.187a2.8,2.8,0,0,0,.593.431,2.4,2.4,0,0,0-.1-.58c-.031-.113-.069-.234-.114-.362l-.049-.124-.149-.339-.314-.666A22.953,22.953,0,0,0,219.8,363.5l1.776-1.412a20.325,20.325,0,0,0,4.779,4.928,16.715,16.715,0,0,0,2.917,1.668,7.138,7.138,0,0,0,1.564.515c.14.029.281.059.425.075.124.008.379.092.212-.072l-.442-.662-1.156-1.7-3.717-5.382,1.221-.985a20.139,20.139,0,0,0,6.181,4.683,16.862,16.862,0,0,0,3.465,1.22,10.593,10.593,0,0,0,1.137.195l.551.045.275.008.137,0c.052.006.1.009.056-.046-.277-.548-.577-1.09-.9-1.618l-.338-.545-.4-.625q-.408-.618-.832-1.212a35.33,35.33,0,0,0-3.591-4.279l.807-1.052c2.263,1.288,4.437,2.636,6.622,3.735.546.273,1.093.532,1.641.77l.411.174.352.143c.187.069.39.154.557.206.348.121.7.227,1.043.313.174.041.345.088.519.118l.258.05c.025,0,.126.045.089,0l-.064-.116-.78-1.467-1.022-2.015c-.79-1.572-1.569-3.083-2.353-4.5l1.131-.855a22.621,22.621,0,0,0,5.8,4.263q.39.2.792.36c.133.054.263.117.4.164l.318.116a8.6,8.6,0,0,0,.965.274,8.788,8.788,0,0,0,.959.151,1.662,1.662,0,0,0,.424.008l-.324-.365a7.425,7.425,0,0,1-.625-.857,8.564,8.564,0,0,1-.616-1.2,30.557,30.557,0,0,1-1.242-3.527l-.608-2.01,1.827,1.067a35,35,0,0,0,5.971,2.742l.765.258.7.216c.263.075.523.144.783.2a8.422,8.422,0,0,0,1.531.216l.042,0-.022-.036-.046-.075-.1-.149c-.07-.094-.134-.192-.209-.28-.144-.182-.295-.354-.449-.521l-.466-.486-.647-.649a23.456,23.456,0,0,1-3.738-4.375l1.55-1.072a11.429,11.429,0,0,0,5.534,3.255c.525.136,1.051.249,1.581.332l.8.094.551.031a5.882,5.882,0,0,0,.752-.036l.368-.062.181-.046c.061-.014.15-.02.07-.082-.222-.272-.459-.529-.7-.784l-1.25-1.321c-1.073-1.139-2.139-2.221-3.16-3.487l1.148-1.444c1.357.665,2.544,1.392,3.754,2.1l1.929,1.155.562.305c.162.109.047-.035.006-.111s-.094-.174-.134-.263a16.2,16.2,0,0,1-.623-1.69l-.075-.217-.135-.36q-.148-.366-.287-.708a11.526,11.526,0,0,0-.573-1.147l-.517-.9.91-.184a2.108,2.108,0,0,1,1.271.14,5.326,5.326,0,0,1,.833.436,13.534,13.534,0,0,1,1.368.992c.837.682,1.576,1.365,2.227,1.983l2.6,2.536-.577.515a56.467,56.467,0,0,1-2.695-5.067c-.161-.368-.336-.786-.476-1.208a5.306,5.306,0,0,1-.268-1.179,1.149,1.149,0,0,1,.272-1,1.449,1.449,0,0,1,.966-.181,7.367,7.367,0,0,1,1.692.507c.47.187.88.353,1.257.478a2.4,2.4,0,0,0,1.014.15C276.566,341.723,276.663,341.422,276.715,341.231Z"></path></g></g><g class="cls-4"><g class="cls-5"><path d="M231.966,268.645a14.953,14.953,0,0,1-3.6-2.845,18.1,18.1,0,0,1-2.478-3.3,16.805,16.805,0,0,1-1.1-2.241,13.693,13.693,0,0,1-.707-2.262c0-.077-.061-.073-.124-.074l-.179-.013-.36-.026-.729-.053-1.767-.134-2.325-.186-.6-.049-.152-.012a.3.3,0,0,1-.069-.009l.02-.038.08-.154a1.387,1.387,0,0,0,.123-.674,15.53,15.53,0,0,0,1.316-2.309,3.544,3.544,0,0,0,.336-1.144,5.591,5.591,0,0,0,.012-.885l.758.657c-1.591.132-3.243,1.107-5.414,1.361l-2.468.288,1.924-1.645a16.887,16.887,0,0,0,3.848-5.828l1.018,1.146-10.31,3.448-2.893.968,1.88-2.421,5.216-6.718,1.042,1.558-9.741,2.817-3.117.9,2.011-2.563,5.925-7.551,1.288,1.7c-3.919,1.668-7.826,3.729-12.012,5.516l-1.316-1.867,8.14-8.821,1.446,1.927c-5.076,2.511-10.426,4.292-15.363,6.737l-1.562-2.011c3.22-3.829,6.808-7.213,9.888-10.888l1.669,2.093c-3.029,1.585-6.081,2.951-8.993,4.456a38.108,38.108,0,0,0-7.985,5.17l-1.954-2.146c2.123-1.967,4.327-3.658,6.321-5.441a22.086,22.086,0,0,0,4.924-5.743l2.216,1.983a71.848,71.848,0,0,1-9.712,5.46,65.9,65.9,0,0,0-8.866,5.01l-2.06-2.557c3.132-2.963,6.353-5.521,9.245-8.032a57.347,57.347,0,0,0,7.532-7.66l2.351,2.7c-3.283,2.015-6.413,3.718-9.256,5.242-2.788,1.5-5.524,2.983-8.121,4.657A59.6,59.6,0,0,0,169.8,241.8l-3.161-2.813a58.078,58.078,0,0,1,8.75-10.171c3.268-3.026,6.515-5.82,9.539-8.906l3,3.67-29.887,20.811-3.237-4.251A295.941,295.941,0,0,0,178.355,217.1l2.372,4.865a17.615,17.615,0,0,0-7.94,3.341A34.638,34.638,0,0,0,169.1,228.3c-1.325,1.2-2.664,2.335-4.008,3.45-2.687,2.23-5.4,4.378-8.064,6.549s-5.3,4.352-7.687,6.613l-4.6-4.211c3.791-4.785,7.739-9.324,11.667-13.9s7.881-9.121,11.547-13.741l4.683,4.566c-5.721,4.825-11.434,9.67-17.207,14.424s-11.591,9.439-17.708,13.87l-4.665-5.007a177.4,177.4,0,0,1,14.851-15.424c5.077-4.787,10.212-9.354,15.2-13.936l3.707,5.974a83.1,83.1,0,0,0-21.826,13.121,240.4,240.4,0,0,0-18.552,17.212l-5.35-5.163c1.761-1.9,3.381-3.619,5.02-5.3,8.786-9.063,17.916-17.555,26.206-26.531l4.876,5.8c-14.714,9.587-27.524,21.976-39.114,35.089l-5.905-4.995c10.591-12.957,22.427-24.063,32.306-36.181l5,5.7c-7.631,4.687-14,11.415-20.147,18.407-6.162,6.994-12.167,14.414-19.546,20.749l-5.532-4.91c9.033-13.224,19.392-24.368,27.541-36.38l5.428,4.576c-7.358,7.006-14.184,14.431-20.64,21.891-6.432,7.481-12.522,15.055-17.925,22.789l-5.757-2.917A75.769,75.769,0,0,1,97.7,250.186c1.761-3.2,3.611-6.242,5.485-9.193,3.748-5.9,7.626-11.43,11.364-16.865l4.558,3.744a171.6,171.6,0,0,0-32.668,44.837l-4.609-1.555a68.962,68.962,0,0,1,6.761-17.736c2.763-5.221,5.739-9.915,8.633-14.5l3.477,2.245C90.032,256.6,81.59,269.907,73.9,282.712l-2.651-.793a35.2,35.2,0,0,1,2.941-11.738,37.841,37.841,0,0,1,5.507-8.848A36.654,36.654,0,0,0,72.65,282l.036.011c6.952-13.358,15.4-28.149,24.827-43l2.988,1.929c-2.89,5.029-5.793,10.076-8.241,15.271a63.558,63.558,0,0,0-5.369,15.962L81.8,270.451a166.164,166.164,0,0,1,14.954-25.985,175.3,175.3,0,0,1,17.624-21.292l5.7,4.684c-4.588,6.922-8.8,13.206-12.256,18.91a107.728,107.728,0,0,0-7.855,14.9c-.157.39-.313.78-.455,1.135l-6.655-3.37a302.256,302.256,0,0,1,19.3-24.074c6.68-7.571,13.478-14.771,20.544-21.383l4.517,3.809c-4.549,6.582-9.51,12.654-14.3,18.6s-9.466,11.729-13.5,17.606l-3.69-3.276c7.162-6.072,13.218-13.5,19.554-20.574,6.312-7.078,13.047-13.978,21.115-18.871l2.644,3.012c-10.729,12.928-22.73,24.1-32.5,36.022l-2.681-2.268c12.278-13.778,25.64-26.372,40.412-35.894l2,2.379c-10.451,11.2-21.627,21.208-31.353,31.714l-2.148-2.073a239.611,239.611,0,0,1,19.636-18.01A87.794,87.794,0,0,1,164.976,212.8l1.547,2.492c-5.226,4.78-10.461,9.425-15.49,14.159A169.026,169.026,0,0,0,136.905,244.1l-2.091-2.244c6.091-4.4,11.933-9.114,17.681-13.823s11.374-9.483,16.974-14.192l2.348,2.288c-7.71,9.623-15.945,18.443-23.259,27.606l-2.578-2.359c5.263-4.909,10.846-9.043,16.1-13.415,1.313-1.087,2.611-2.179,3.846-3.3a38.871,38.871,0,0,1,4.183-3.351,22.1,22.1,0,0,1,10.2-4.106l4.907-.5-3.367,3.653a296.4,296.4,0,0,1-24,23.31l-2.4-3.152,30-20.647,2.625,3.2c-3.167,3.187-6.587,6.088-9.73,8.957a53.93,53.93,0,0,0-8.2,9.382l-3.16-2.812a65.386,65.386,0,0,1,12.674-8.737c4.429-2.385,8.746-4.534,12.835-7.023l2.791,3.2a62.636,62.636,0,0,1-8.573,8.519c-3.007,2.534-5.977,4.9-8.7,7.447l-2.687-3.335a70.743,70.743,0,0,1,9.661-5.363,67.082,67.082,0,0,0,9-4.979l3.057,2.737a25.76,25.76,0,0,1-5.854,6.777c-2.134,1.864-4.307,3.512-6.213,5.256l-2.769-3.044a40.15,40.15,0,0,1,8.467-5.449c2.893-1.473,5.8-2.755,8.55-4.128l.767-.39,2.405,3.016c-1.385,1.617-2.882,3.216-4.548,4.944s-3.493,3.592-5.446,5.854l-2.268-2.921c4.722-2.29,9.9-3.922,15.465-6.527l2.038,2.716-8.295,8.681-1.771-2.514c4.085-1.653,8.185-3.7,12.114-5.271l1.607,2.127-6.093,7.419-1.283-1.928,9.806-2.583,3.107-.818-2.011,2.457-5.387,6.584-.962-1.379,10.4-3.167,1.46-.445-.642,1.366c-1.266,2.7-2.935,5.123-4.405,6.2l-.376-.938a14.793,14.793,0,0,0,2.989-.693,11.02,11.02,0,0,1,2.44-.5l.434-.022.02.416a6.483,6.483,0,0,1-.062,1.191,5.881,5.881,0,0,1-.222.936,6.122,6.122,0,0,1-.645,1.36,6.392,6.392,0,0,1-.6.821c-.223.176.06.135.183.162l.439.049,1.685.19,1.741.194.769.087.348.04.164.019a.239.239,0,0,1,.076.014l.022.073a18.286,18.286,0,0,0,.66,2.552,17.482,17.482,0,0,0,.871,2.055,17.88,17.88,0,0,0,2.041,3.174A19.71,19.71,0,0,0,231.966,268.645Z"></path></g></g><path class="cls-2" d="M313.956,228.529a41.33,41.33,0,0,0-8.6-7.368,86.683,86.683,0,0,1-22.278-20.577C261.333,171.523,196.851,157.172,153.5,168.5c-21.735,5.4-114,65-80.042,142.708,6.976,21.862,9.326,53.579,44.651,62.8,8.689,2.941,11.77,4.824,20.94,5.03,6.551.147,17.221-3.492,16.79-4.356-26.939-3.758-50.01-11.694-67.322-37.413C80.886,325.685,77.5,314.946,74.39,294.7,71.54,272.7,86.7,251.957,103.211,238.97,181.336,206.461,272.5,266.5,269.755,341.5c-1.245,34.044-68.473,42.5-105.379,36.416,21.36,18.329,82.7,23.435,132.148-5.771,14-10.106,17.173-35.8,18.737-52.229.009-.12.017-.24.025-.359a89.955,89.955,0,0,1,8.573-32.405C333.455,266.755,327.888,241.285,313.956,228.529Z"></path><path d="M313.986,228.5c.494.447,1.553,1.346,2.949,2.815.651.775,1.451,1.641,2.262,2.689l1.216,1.716.655.927c.215.322.4.672.612,1.019l1.284,2.19c.412.777.79,1.612,1.209,2.463.2.429.425.859.621,1.309l.546,1.394c.348.952.8,1.9,1.085,2.944a53.96,53.96,0,0,1,2.693,14.059,54.684,54.684,0,0,1-1.557,16.778c-.345,1.466-.884,2.9-1.328,4.385-.538,1.45-1.174,2.893-1.775,4.36-1.307,2.826-2.514,5.781-3.586,8.853a87.516,87.516,0,0,0-4.454,19.695c-.556,6.966-1.29,14.231-2.535,21.508-.644,3.642-1.432,7.295-2.413,10.931a77.734,77.734,0,0,1-3.845,10.713,41.568,41.568,0,0,1-6.228,9.736c-.684.7-1.3,1.465-2.045,2.1l-2.3,1.907-5.012,2.835A152.984,152.984,0,0,1,250.046,390.9c-28.345,5.8-55.338,3.162-72.916-3.894-.334-.126-.668-.255-1-.406l-1.042-.46c-.97-.429-1.952-.866-2.825-1.357L169.6,383.31l-.674-.373c-.206-.127-.385-.256-.58-.384l-1.151-.775c-1.59-1.033-3-2.126-4.571-3.3l-2.474-1.943c-.045-.038-.122-.091-.141-.115l-.007-.049-.015-.1-.032-.2-.073-.4c3.053.434,6.691.964,9.856,1.329l4.807.526c.78.065,1.558.13,2.33.171l1.642.1c3.932.193,7.888.295,11.859.213,3.969-.057,7.953-.239,11.937-.569,3.986-.3,7.969-.778,11.945-1.357s7.929-1.357,11.863-2.238c3.922-.927,7.807-2.027,11.627-3.319a84.255,84.255,0,0,0,11.076-4.744,46.89,46.89,0,0,0,9.834-6.679,28.1,28.1,0,0,0,6.956-9.187c.413-.86.663-1.784,1.01-2.67.276-.909.428-1.853.657-2.776.139-.942.187-1.9.294-2.848.037-.991,0-2.033,0-3.048a89.457,89.457,0,0,0-3.327-24.267c-4.433-15.863-13.289-30.415-24.66-42.486a126.543,126.543,0,0,0-88.755-39.182,118.646,118.646,0,0,0-24.483,2.126,121.873,121.873,0,0,0-11.846,3.052l-2.92.89c-.957.342-1.9.718-2.854,1.074l-2.848,1.081-1.273.482c-.049.022.013-.017-.135.1l-.584.48a88.6,88.6,0,0,0-8.844,8.193,78.509,78.509,0,0,0-7.581,9.235,63.619,63.619,0,0,0-5.929,10.182,49.224,49.224,0,0,0-3.7,10.951c-.164.858-.351,1.712-.5,2.57l-.28,2.593a18.346,18.346,0,0,0-.137,2.6c0,.864-.063,1.737-.01,2.594a88.5,88.5,0,0,0,1.476,10.617,112.461,112.461,0,0,0,5.541,20.888,72.615,72.615,0,0,0,10.666,18.37,74.9,74.9,0,0,0,15.2,14.761,77.242,77.242,0,0,0,18.693,9.852c3.346,1.182,6.733,2.261,10.195,3.119,1.729.435,3.457.87,5.213,1.212l1.312.276,1.209.255,1.366.243,5.639.906,2.817.453,1.408.227c.109.019.252.036.334.058l.025.079.051.16.4,1.277.2.638.051.16c.164.015-.195.057-.15.141l.021.179.053.477a2.106,2.106,0,0,1-.7,1.633c-.933,1.166-4.036,2.321-7.253,3.251-1.638.471-3.382.884-5.165,1.226l-.857.151-.719.113q-.72.109-1.456.19a27.725,27.725,0,0,1-3.028.181c-1.042-.017-1.912-.042-2.889-.108a42.368,42.368,0,0,1-5.761-.723,44.561,44.561,0,0,1-5.572-1.524c-1.774-.6-3.464-1.23-5.143-1.829l-2.511-.878-.313-.108-.137-.042-.677-.2-1.353-.392c-.907-.243-1.8-.56-2.684-.874s-1.781-.614-2.648-.993a51.971,51.971,0,0,1-10.022-5.322A50.219,50.219,0,0,1,84.63,352.339a91.96,91.96,0,0,1-8.225-20.233c-1.009-3.431-1.908-6.856-2.807-10.24q-.684-2.521-1.365-5.037l-.711-2.483-.661-2.189q-.975-2.512-1.948-5.019c-.315-.839-.666-1.664-.95-2.513l-.763-2.58c-.485-1.725-1.065-3.421-1.464-5.165q-.539-2.631-1.077-5.255l-.267-1.312-.158-1.331-.311-2.659-.308-2.655c-.108-.884-.079-1.779-.124-2.667-.035-1.778-.153-3.556-.115-5.328l.284-5.309a93.129,93.129,0,0,1,4.288-20.583,110.393,110.393,0,0,1,8.613-18.811q1.321-2.2,2.639-4.393l2.849-4.23c.918-1.431,1.991-2.742,2.986-4.108l1.517-2.027,1.595-1.958c1.081-1.288,2.1-2.625,3.228-3.865l3.343-3.739c2.309-2.407,4.594-4.824,7.014-7.082a177.351,177.351,0,0,1,31-23.725,99.405,99.405,0,0,1,17.3-8.529,42.922,42.922,0,0,1,4.705-1.309l2.3-.54,2.321-.453,2.319-.439,2.324-.359c1.546-.26,3.1-.44,4.644-.618a160.4,160.4,0,0,1,36.5.241,170.127,170.127,0,0,1,34.214,7.532,117.587,117.587,0,0,1,30.154,14.709A67.287,67.287,0,0,1,281.7,196.911c.859,1.036,1.7,2.114,2.51,3.152q1.154,1.551,2.37,3.041,2.436,2.971,5.117,5.671a89.114,89.114,0,0,0,11.421,9.7c1,.724,2.012,1.4,3.045,2.1s2.06,1.453,3.037,2.238a39.966,39.966,0,0,1,5.376,5.176,39.954,39.954,0,0,0-5.062-4.546c-1.831-1.427-3.895-2.64-5.9-3.911a88.093,88.093,0,0,1-11.881-9.109c-1.919-1.754-3.79-3.63-5.59-5.631s-3.479-4.181-5.264-6.232A64.143,64.143,0,0,0,268.1,187.771c-9.553-6.265-20.606-10.843-32.07-14.176a173.637,173.637,0,0,0-35.294-6.253,154.4,154.4,0,0,0-34.646,1.184l-4.1.711-4.02.847-3.934.989-1.8.552c-.6.21-1.2.457-1.8.681a96.458,96.458,0,0,0-13.643,6.959,177.053,177.053,0,0,0-22.308,15.994A188.225,188.225,0,0,0,99,209.809a133.761,133.761,0,0,0-17.432,22.8,93.365,93.365,0,0,0-10.93,25.941,78.622,78.622,0,0,0-1.832,27.614l.39,3.437.68,3.39.678,3.387.964,3.316.96,3.314c.361,1.091.809,2.153,1.209,3.23l1.231,3.219.307.8a5.213,5.213,0,0,1,.21.61l.13.428.511,1.709c2.614,9.109,4.516,18.172,7.724,26.677,3.15,8.475,7.7,16.4,14.314,22.253a45.869,45.869,0,0,0,11,7.173c.984.489,2.022.865,3.029,1.3,1.025.4,2.073.742,3.107,1.117l3.168.938c.313.09.346.115.508.168l.4.14.806.281,1.6.575c2.131.766,4.226,1.57,6.3,2.218a34.488,34.488,0,0,0,6.3,1.376c1.069.134,2.151.217,3.238.277l1.627.06c.511.01,1.033-.006,1.557-.037a31.925,31.925,0,0,0,3.177-.37l1.063-.187.823-.176a24.092,24.092,0,0,0,3.277-.986,6.546,6.546,0,0,0,.788-.366c.105-.074.3-.151.275-.292l-.412-.065-1.66-.262c-1.112-.186-2.241-.395-3.371-.621l-3.047-.652c-1.09-.213-2.16-.521-3.239-.781a94.92,94.92,0,0,1-24.639-9.681A78.185,78.185,0,0,1,93.8,346.237c-1.344-1.7-2.8-3.316-4.01-5.115l-1.885-2.638c-.639-.87-1.178-1.813-1.77-2.716a75.365,75.365,0,0,1-5.809-11.527c-3.159-8-4.9-16.348-6.3-24.594l-.5-3.1-.245-1.552c-.062-.526-.091-1.066-.138-1.6-.067-1.067-.209-2.134-.209-3.2L72.993,287a51.494,51.494,0,0,1,2.345-12.427,66.087,66.087,0,0,1,5.1-11.428,82.5,82.5,0,0,1,7.013-10.216,94.482,94.482,0,0,1,8.349-9.012c.717-.727,1.508-1.373,2.259-2.061s1.514-1.362,2.311-2l1.179-.967.589-.484a2.278,2.278,0,0,1,.837-.541l2.895-1.094,2.836-1.071,1.416-.535,1.446-.446,5.778-1.756c3.907-.929,7.788-1.955,11.746-2.506,1.969-.329,3.931-.689,5.917-.838,1.98-.183,3.952-.44,5.931-.56l5.933-.228c1.975-.07,3.947.058,5.916.078.983.035,1.969.019,2.949.095l2.936.245c1.953.182,3.914.266,5.844.595,1.935.285,3.872.539,5.795.847l5.72,1.161a139.813,139.813,0,0,1,22.04,6.981,142.356,142.356,0,0,1,20.2,10.6A129.139,129.139,0,0,1,236.1,263.179a114.106,114.106,0,0,1,14.872,16.51c2.264,2.914,4.189,6.052,6.161,9.138l2.674,4.793a27.246,27.246,0,0,1,1.241,2.439l1.171,2.47L263.381,301l1,2.537.994,2.533.493,1.267.406,1.3,1.62,5.174q.622,2.634,1.243,5.26c.472,1.739.647,3.534.956,5.3l.419,2.654c.14.884.164,1.782.252,2.671.125,1.782.332,3.558.388,5.337q.01,2.672.021,5.335a27.377,27.377,0,0,1-2.155,10.713,30.53,30.53,0,0,1-6.18,8.9,44.832,44.832,0,0,1-3.978,3.582c-1.439,1.029-2.842,2.116-4.36,3-1.471.97-3.029,1.761-4.561,2.6-.772.4-1.567.754-2.349,1.132s-1.568.75-2.372,1.066a109.422,109.422,0,0,1-19.574,6.1,166.728,166.728,0,0,1-19.908,3.049,183.368,183.368,0,0,1-19.823.778q-2.463-.021-4.918-.138c-.818-.035-1.636-.057-2.452-.118l-1.871-.12c-1.451-.106-2.885-.247-4.3-.455l-.944-.139c-.068-.018-.022.013.012.039l.095.075.189.149.378.3a18.123,18.123,0,0,0,1.583,1.074c.543.332,1.095.64,1.662.917.277.149.563.285.85.408l1.5.674a88.223,88.223,0,0,0,15.757,4.748,133.378,133.378,0,0,0,32.247,2.4,154.113,154.113,0,0,0,60-14.84c3-1.461,6.1-3.082,9.241-4.885l.594-.332a2.285,2.285,0,0,0,.2-.117l.229-.19,1.01-.832,1.022-.835c.315-.311.615-.645.926-.967a30.9,30.9,0,0,0,3.453-4.256,48.946,48.946,0,0,0,5.134-10.356,84.924,84.924,0,0,0,3.374-11.665,198.063,198.063,0,0,0,3.585-24.845,89.676,89.676,0,0,1,6.161-24.329c.778-1.889,1.592-3.743,2.458-5.548q.588-1.35,1.168-2.686l.575-1.331.46-1.366c.3-.911.615-1.81.9-2.714q.339-1.38.672-2.741a23.316,23.316,0,0,0,.535-2.729c.138-.909.318-1.808.419-2.708a56.857,56.857,0,0,0-1.307-19.936,51.38,51.38,0,0,0-6.13-14.513A42.311,42.311,0,0,0,313.986,228.5Z"></path><path class="cls-2" d="M176.172,166.148c10.913-6.041,24.917-9.609,39.9-10.165l-3.1,12.094a147.487,147.487,0,0,1,45.385-1.37l-4.8,6.427c-.4.529-.79,1.158-.371,1.771a3.486,3.486,0,0,0,2.314,1.162c7.178.906,20.051,2.83,31.3,7.782-.551,1.369-6.94,6.231-8.618,7"></path><path d="M278.157,190.788a18.084,18.084,0,0,1,2.812-2.669c.44-.383.707-.638,1.075-.976l1.052-1c.349-.349.7-.7,1.033-1.083a5.243,5.243,0,0,0,.458-.607l.082-.176c.017-.055-.116-.058-.167-.09l-.419-.152c-1.3-.489-2.544-.881-3.88-1.282L277.594,182c-.911-.231-1.8-.484-2.694-.683a76.416,76.416,0,0,0-9.153-1.645c-1.9-.2-3.838-.391-5.805-.554l-1.48-.12-2.258-.216-.633-.063c-.2-.034-.382-.084-.574-.126l-1.15-.268a5.157,5.157,0,0,1-1.968-.889,4.422,4.422,0,0,1-1.4-1.58,3.384,3.384,0,0,1-.283-1.984,6.1,6.1,0,0,1,.655-2.012,25.874,25.874,0,0,1,1.492-2.211l.8-1.12.2-.276-.041.042-.085.087-.364.391c-.247.24-.57.755-.8.621l-.636.033-.261.021-.117.012-.057.007a.66.66,0,0,1-.169,0c-2.046-.1-4.09-.156-6.121-.178-4.063-.045-8.078.06-11.972.322-3.221.221-6.424.527-9.587.919-.79.1-1.58.192-2.364.311l-1.176.168c-.692.086-1.59.248-2.375.387l-9.644,1.722q.99-3.78,1.97-7.525c.6-2.268,1.537-5.847,1.412-5.267.042-.049.268-.3.065-.316a1.2,1.2,0,0,0-.126-.047l-.081-.023-.805.05c-1.177.069-2.343.153-3.5.262-2.308.2-4.564.472-6.763.794a101.05,101.05,0,0,0-23.022,6.1,31.584,31.584,0,0,1,5.565-5.211,47.93,47.93,0,0,1,7.586-4.551c5.343-2.619,10.827-4.022,13.752-4.162,2.247-.119,4.406-.153,6.631-.179l5.46-.08,2.565-.005,1.244,0c.322-.1.131.227.088.429l-.189.652-1.468,5q-.357,1.2-.712,2.381l-.166.553-.116.356-.115.355-.063.154c-.3.741-.688,1.7-.984,2.652l3.089-.266c2.064-.228,4.1-.429,6.116-.578,4.026-.315,7.95-.495,11.774-.563s7.549-.023,11.173.12c.906.038,1.807.068,2.7.126l1.6.095q.933.061,1.856.147c2.467.2,4.947.441,7.444.685l.059.006c0,.01-.022.034-.031.051l-.079.109-.158.22-.316.441-.633.882-1.271,1.773-1.28,1.785-.55.77-.183.269-.7,1.031c-.2.312-.546.681-.3,1.065a1.667,1.667,0,0,0,1.052.538l1.149.11.276.027.385.044,1.167.15,2.309.326a90.234,90.234,0,0,1,17.086,4.119l.792.28.411.15.488.188,2.393.981c1.627.727,3.282,1.527,4.83,2.33l.082.359.048.175c0,.033.037.05.007.095l-.09.133a7.844,7.844,0,0,1-.763.947,18.314,18.314,0,0,1-1.672,1.635,30.582,30.582,0,0,1-3.658,2.5A23.308,23.308,0,0,1,278.157,190.788Z"></path><path class="cls-2" d="M183.638,383.026c-5.123.17-9.523,4.213-11.432,8.97s-1.747,10.088-1.038,15.164a75.963,75.963,0,0,0,9.72,27.9c1.565-.326,2.047-2.308,2.081-3.906.174-8.154-2.936-15.989-4.15-24.053s.1-17.518,6.786-22.188"></path><path d="M185.631,384.951a18.743,18.743,0,0,1-2.016,2.494,18.1,18.1,0,0,0-2.933,5.671,27.23,27.23,0,0,0-.486,13.393c1.2,5.382,3.353,11.028,4.584,17.32.161.805.272,1.533.407,2.434a37.3,37.3,0,0,1,.261,4.156v1.01l0,.5-.077.4-.315,1.612a5.9,5.9,0,0,1-1.222,2.3,4.437,4.437,0,0,1-2.252,1.395l-.357.108-.179.035-.359.075-.358.078-.179.041-.09.021c-.033,0-.08-.077-.119-.112l-.987-1.048-.494-.523c-.165-.225-.332-.565-.5-.843-.666-1.165-1.337-2.318-1.97-3.611l-.845-1.655c-.277-.548-.574-1.226-.667-1.414q-.427-.9-.814-1.817-.8-1.824-1.466-3.687a69.792,69.792,0,0,1-2.271-7.5,68.958,68.958,0,0,1-1.384-7.51,45.287,45.287,0,0,1-.416-7.482,26.323,26.323,0,0,1,1.21-7.288,20.256,20.256,0,0,1,1.419-3.333,17.654,17.654,0,0,1,2-2.886,15.258,15.258,0,0,1,5.15-3.977,11.6,11.6,0,0,1,5.71-1.109,14.3,14.3,0,0,0-4.637,3.029,16.165,16.165,0,0,0-3.268,4.655c-1.567,3.305-1.7,6.715-2.088,8.533a37.123,37.123,0,0,0-.157,11.431,60.384,60.384,0,0,0,2.281,10.886c.536,1.722,1.117,3.4,1.781,5.023.159.408.328.81.5,1.207l.4.934c.223.486.444.976.687,1.452s.488.945.736,1.4l.383.671c.138.187.208.574.5.345a1.781,1.781,0,0,0,.853-1.229,5.027,5.027,0,0,0,.123-1.506c0-.5-.045-.979-.083-1.448l-.082-.691-.129-.908c-.216-1.5-.513-2.976-.849-4.425-.66-2.9-1.466-5.7-2.143-8.469a52.642,52.642,0,0,1-1.49-8.269,28.66,28.66,0,0,1,.39-7.979,18.258,18.258,0,0,1,3.535-7.985,14.622,14.622,0,0,1,2.818-2.713l.614-.445.563-.322Z"></path><path d="M184.775,447.072c-.9.194-1.51-1.73-2.238-2.317a9.7,9.7,0,0,1-2.565-3.839,7.35,7.35,0,0,1,.318-6.871c2.5.2,4.449,1.12,4.154,1.687a5.948,5.948,0,0,0-.259,5.466c.606,1.426,1.49,2.537,1.484,3.766A4.879,4.879,0,0,1,184.775,447.072Z"></path><path class="cls-2" d="M133.081,373.373c2.235,6.65-2.54,13.35-6.141,19.37a66.685,66.685,0,0,0-8.072,46.815c2.443-.09,4.379-2.287,5.053-4.637s.389-4.85.244-7.291A61.787,61.787,0,0,1,134.7,389.5a29.056,29.056,0,0,0,3.622-6.1,7.483,7.483,0,0,0-.476-6.818"></path><path d="M137.883,376.561a2.233,2.233,0,0,1,.881,1,6.344,6.344,0,0,1,.72,2.758,9.672,9.672,0,0,1-.682,3.907,21.778,21.778,0,0,1-2.16,4.031,63.7,63.7,0,0,0-4.657,8.018,49.991,49.991,0,0,0-2.753,7.016,67.785,67.785,0,0,0-2.774,20.793c.037,1.817.187,3.509.349,5.45a17.191,17.191,0,0,1-.482,6.489c-.045.152-.1.3-.153.446a5.6,5.6,0,0,1-.251.6,10.351,10.351,0,0,1-.616,1.155,9.154,9.154,0,0,1-1.575,1.94,7.605,7.605,0,0,1-3.822,1.993c-.664.115-1.313.158-2.038.238l-.133.014c-.049.011-.09.01-.1-.037l-.109-.2-.218-.407-.43-.844a11.625,11.625,0,0,1-1.327-4.073l-.43-3.2-.22-2.426c-.083-.807-.083-1.618-.126-2.426s-.06-1.615-.041-2.421a62.322,62.322,0,0,1,.729-9.541,64.114,64.114,0,0,1,5.244-17.483,63.18,63.18,0,0,1,4.127-7.469c1.483-2.293,2.977-4.352,4.229-6.393a26.216,26.216,0,0,0,2.914-6.026,11.62,11.62,0,0,0,.317-5.833,9.889,9.889,0,0,1,1.83,6.315,19.179,19.179,0,0,1-.563,3.959,32.485,32.485,0,0,1-1.254,3.834c-.974,2.461-2.119,4.694-3.056,6.552-.443.925-.876,1.765-1.277,2.5-.368.755-.717,1.4-1.034,1.911a56.978,56.978,0,0,0-8,26.245,58.714,58.714,0,0,0,.016,6.461c.072,1.058.124,2.111.268,3.146l.118,1.024c.036.323.1.641.153.961l.163.954.021.118.119-.01a1.706,1.706,0,0,0,.237-.03,2.823,2.823,0,0,0,.461-.123,3.462,3.462,0,0,0,1.485-1.134,4.676,4.676,0,0,0,.491-.787c.066-.144.124-.271.181-.43a5.9,5.9,0,0,0,.191-.608,10.938,10.938,0,0,0,.32-2.661c.022-1.829-.259-3.763-.318-5.713-.107-1.936-.092-3.845-.026-5.72a61.039,61.039,0,0,1,1.4-10.8,55.01,55.01,0,0,1,7.478-18.149,41.176,41.176,0,0,1,2.905-3.992,25.09,25.09,0,0,0,2.908-4.143,8.623,8.623,0,0,0,1.019-4.156A6,6,0,0,0,137.883,376.561Z"></path><path d="M121.166,449.682a.216.216,0,0,1,0-.176.275.275,0,0,1,.329-.093.67.67,0,0,1,.4.781.754.754,0,0,1-.568.562,1.021,1.021,0,0,1-.412.011,1.07,1.07,0,0,1-.282-.081,1.43,1.43,0,0,1-.731-.883,2.406,2.406,0,0,1-.1-.43l-.053-.277c-.037-.174-.073-.348-.108-.516a3.264,3.264,0,0,0-.29-.853,12.271,12.271,0,0,1-1.241-4.852,9.034,9.034,0,0,1,2.155-7.165c2.378.86,4.026,2.448,3.589,2.988-3.511,4.349-.776,7.785-1.619,10.392a1,1,0,0,1-.088.251c-.022.059-.046.06-.072.065l-.042.009-.11.014a1.342,1.342,0,0,0-.683.237l.017-.045,0-.014v0h0c-.024.093.054-.211-.055.21h0l0,.005,0,.012a.168.168,0,0,0-.007.05c-.005.055.016.071,0,.044-.034-.049-.174-.071-.1-.061s.206-.08.18-.08C121.287,449.728,121.207,449.693,121.166,449.682Z"></path><path d="M259.137,376.14a20.5,20.5,0,0,1,2.447-2.711,28.371,28.371,0,0,0,4.177-6.051,35.72,35.72,0,0,0,2.835-8.006,39.95,39.95,0,0,0,.945-6.927c.5-12.563-2-26.928-5.567-39.5a251.85,251.85,0,0,0-11.123-31.148c-4.142-9.452-8.448-17.782-12.949-23.723,3.184,1.556,7.075,5.071,10.149,8.813a42.6,42.6,0,0,1,6.343,9.866c3.5,8.944,6.293,17.4,8.672,25.424s4.289,15.622,5.662,22.863a112.3,112.3,0,0,1,2.215,20.643,48.88,48.88,0,0,1-2.982,18.091A25.23,25.23,0,0,1,264.7,372,21.524,21.524,0,0,1,259.137,376.14Z"></path><g class="cls-4"><g class="cls-5"><path d="M236.578,376.99c.264-.554,2.89-1.183,5.841-2.849A24.138,24.138,0,0,0,246.805,371a20.649,20.649,0,0,0,3.434-4.059l2.529,1.917a6.087,6.087,0,0,0-1.1,3.271,7.674,7.674,0,0,0,.037.925l-2.244-2.1c1.779-.452,3.306-2.426,4.256-4.8.5-1.229.926-2.66,1.475-4.21a20.782,20.782,0,0,1,2.38-4.913l5.872,2.746c-.761,3.98-1.557,7.9-2.33,11.686l-4.911-4.234a1.4,1.4,0,0,0,.4-.333,6.8,6.8,0,0,0,1.1-2.142c.18-.5.35-1.061.52-1.658l.548-1.923c.741-2.574,1.5-5.112,2.279-7.6l7.457.729a114.108,114.108,0,0,1,.23,12.49l-6.423-1.375a50.809,50.809,0,0,0,5.772-19.914,21.469,21.469,0,0,1,3.353,11.082c.21,4.227-.765,8.231-1.844,10.042-.338.6-.719,1.182-1.048,1.719l-6.7-1.433a91.63,91.63,0,0,0,.668-12.071l4.3.421q-1.7,4.482-3.124,8.77a25.132,25.132,0,0,1-1.792,4.423,7.646,7.646,0,0,1-3.857,3.6l-2.616.969.636-2.676c.967-4.073,1.808-7.991,2.58-11.747l2.9,1.357c-1.632,2.362-2.25,5.452-3.676,8.5a14.271,14.271,0,0,1-3,4.245,8.66,8.66,0,0,1-5.021,2.426l-2.389.236.049-2.427a10.447,10.447,0,0,1,2.353-6.4l3.4,2.577a20.818,20.818,0,0,1-3.493,3.667,18.614,18.614,0,0,1-7.4,3.682A19,19,0,0,1,236.578,376.99Z"></path></g></g><g class="cls-4"><g class="cls-5"><path d="M316.594,267.35a3.494,3.494,0,0,0-.723,1.04,1.954,1.954,0,0,0,.711,2.211l.51.374-.585.313a4.882,4.882,0,0,1-1.271.5,4.5,4.5,0,0,1-1.468.1l-.247-.029-.123-.021-.061-.011c-.032-.008-.039-.007,0,.008a4.612,4.612,0,0,1,1.682,1.212,4,4,0,0,1,.334.458c.033.062.115.2.184.346s.133.284.181.436a4.177,4.177,0,0,1,.231,1.941l-.064.5-.524.066a14.586,14.586,0,0,1-1.757.115,9.176,9.176,0,0,1-1.059-.044c-.293-.029-.576-.071-.846-.125l-.395-.089c-.092-.013-.373-.133-.148.021a4.419,4.419,0,0,1,1.088,1.267,3.61,3.61,0,0,1,.176.36,3.019,3.019,0,0,1,.162.489,3.147,3.147,0,0,1,.086.371,3.7,3.7,0,0,1,.07.455,5.713,5.713,0,0,1,.028.872,5.412,5.412,0,0,1-.29,1.554c-.085.233-.157.46-.252.686l-.132.333c-.047.1-.124.124-.183.19l-.073-.016c-.792-.164-1.618-.332-2.455-.544l-1.015-.265-.874-.251a34.092,34.092,0,0,1-3.618-1.315l1.441-2.056A15.809,15.809,0,0,1,308,282.1a13.307,13.307,0,0,1,1.285,2.847,27.392,27.392,0,0,1,.7,3.282,1.837,1.837,0,0,1-.535.217l-.727.157a9.339,9.339,0,0,1-1.386.212,4.76,4.76,0,0,1-1.489-.209,3.575,3.575,0,0,1-.782-.261l-.8-.422a5.446,5.446,0,0,1-.793-.487l-.63-.473-.876-.726-.206-.18-.043-.032-.071-.051-.132-.093a.608.608,0,0,0-.451-.155.245.245,0,0,0-.094.044c-.014.024.063.078.085.114a2.694,2.694,0,0,1,.175.22l.1.154.037.067.008.015c.007.021-.007-.032.027.08l.161.519a14.343,14.343,0,0,1,.511,3.239c.046,1.036-.023,1.952-.036,2.991l-.5.027-.614.007-1.169.009a5.269,5.269,0,0,1-2.234-.5,5.147,5.147,0,0,1-.875-.52,3.566,3.566,0,0,1-.434-.3l-.411-.4c-.271-.269-.555-.517-.809-.819l-.533-.661-1.425-1.9a8.991,8.991,0,0,0-1.3-1.37,3.225,3.225,0,0,0-1.226-.567l2.063-2.95a41.866,41.866,0,0,1,2.568,5.386l.134.344.213.59c.152.43.313.854.445,1.291.287.872.525,1.723.736,2.544.406,1.643.686,3.109,1.038,4.694l-1.666-.419-1.782-.467a7.924,7.924,0,0,1-1.631-.621,7.438,7.438,0,0,1-.836-.467l-.859-.644a6.574,6.574,0,0,1-.85-.8,11.012,11.012,0,0,1-.811-.864l-.71-.883-.176-.22-.031-.044-.048-.072a.812.812,0,0,1-.1-.172l-.061-.113a1.491,1.491,0,0,0-.564-.566l-.118-.064c-.008,0,.006.014.009.022a.593.593,0,0,1,.036.075,1.474,1.474,0,0,1,.074.256,2.48,2.48,0,0,1,.06.346l.065.874a12.788,12.788,0,0,1-.064,2.577c-.04.4-.1.781-.153,1.161-.064.372-.1.8-.188,1.115-1.349-.459-2.6-.889-3.781-1.385l-.8-.386c-.189-.089-.368-.195-.547-.3-.357-.206-.712-.4-1.043-.628a18.654,18.654,0,0,1-3.485-2.888,13.756,13.756,0,0,1-3.648-6.81,15.823,15.823,0,0,0,5.115,5.779,19.469,19.469,0,0,0,3.653,2.017c1.673.721,1.574.44,1.782.408a1.154,1.154,0,0,0-.1-.361c-.02-.048-.037-.057-.058-.111-.024-.079-.022.034-.114-.506a15.2,15.2,0,0,0-.438-1.624,7.063,7.063,0,0,0-.345-.868c-.135-.3-.236-.572-.4-.892l-.734-1.18-.361-.58-.192-.3-.319-.449-2.55-3.591c1.076.192,1.592.295,1.922.372a4.591,4.591,0,0,1,.632.183c.113.051.212.088.229.1a.149.149,0,0,0,.034.013l.4.094.787.187,1.346.351a6.155,6.155,0,0,1,1.18.417l.578.283.58.374a9.277,9.277,0,0,1,1.171.916,4.758,4.758,0,0,1,.6.594l.6.652c.393.476.789,1.009,1.16,1.491l.9,1.261.245.38a3.753,3.753,0,0,0,.489.623,3,3,0,0,0,.723.56,2.831,2.831,0,0,0,.446.2c.031.007.1.05.1.029l-.007-.082-.017-.17a9.833,9.833,0,0,0-.223-1.164l-.179-.65-.111-.352-.232-.639a39.027,39.027,0,0,0-2.2-4.827l-.851-1.58,1.749.3a6.01,6.01,0,0,1,3.266,1.883,23.981,23.981,0,0,1,2.053,2.633c.154.207.3.426.458.62.184.228.22.293.345.43a3.865,3.865,0,0,0,.689.652,1.749,1.749,0,0,0,.406.238,1.375,1.375,0,0,0,.443.146,1.421,1.421,0,0,0,.459.042c.064-.014.185.032.2-.032l.008-.228a7.115,7.115,0,0,0-.313-2.247c-.047-.147-.07-.252-.136-.432l-.219-.578a12.684,12.684,0,0,0-.546-1.158,23.725,23.725,0,0,0-1.963-2.742,1.355,1.355,0,0,0-.094-1.26,2.01,2.01,0,0,0-.166-.271l-.085-.132.314-.052.626-.1.584-.017a4.976,4.976,0,0,1,2.157.5,10.015,10.015,0,0,1,2.191,1.368c.377.288.759.642,1.139.96l.988.874c.26.212.516.445.775.637a5.021,5.021,0,0,0,.5.349,2.743,2.743,0,0,0,.993.412,1.78,1.78,0,0,0,.516-.01l.248-.06c.061,0,.048-.044.036-.091l-.025-.132a6.094,6.094,0,0,0-.31-1.047c-.066-.164-.136-.323-.212-.477l-.131-.254-.228-.411a13.941,13.941,0,0,0-2.276-2.913l1.2-1.713a35.364,35.364,0,0,0,3.318,1.3l.831.269.676.2.764.194c.11.066.12-.068.159-.142a1.912,1.912,0,0,0,.076-.255,2.116,2.116,0,0,0,.05-.525,2.518,2.518,0,0,0-.026-.256,3.14,3.14,0,0,0-.089-.406l-.014-.056c0-.016-.006-.027-.035-.114l-.1-.216-.191-.428c-.089-.146-.217-.3-.323-.446a2.669,2.669,0,0,0-.387-.458c.228-1.134.032-1.555-.238-1.881-.164-.125.1-.063.191-.093a2.428,2.428,0,0,0,.406-.081,3.028,3.028,0,0,0,1.013-.533,12.435,12.435,0,0,0,1.927.344c.259.016.568.041.8.043l.512.008c.342,0,.682-.015,1-.034l-.842.811a2.735,2.735,0,0,0-.112-1.359,2.594,2.594,0,0,0-.119-.317,1.948,1.948,0,0,0-.275-.458,1.564,1.564,0,0,0-.337-.395c-.135-.118-.224-.227-.352-.32a1.976,1.976,0,0,0-.567-1.379,2.107,2.107,0,0,0-.541-.372c-.061-.026.023-.006.045,0l.105.014.211.018a3.96,3.96,0,0,0,.422,0,4.809,4.809,0,0,0,.784-.115c.475-.121.819-.266.826-.2a4.653,4.653,0,0,0,1.476-.284l.3-.105.01,0-.042.388h0v0l0,0-.009-.014a.037.037,0,0,1-.007-.016.011.011,0,0,1,.011,0l.012.007.008,0,0,0h0l.038-.343-.038.343a2.471,2.471,0,0,1-.849-1.688,2.064,2.064,0,0,1,.3-1.235A1.972,1.972,0,0,1,316.594,267.35Z"></path></g></g><ellipse cx="115.867" cy="210.685" rx="17.621" ry="10.811" transform="translate(-118.764 158.135) rotate(-48.567)"></ellipse><path d="M125.8,215.49c-.1-.5,1.956-3.372,2.954-7.187a13.733,13.733,0,0,0,.432-5.785,6.61,6.61,0,0,0-1.953-3.932,6.2,6.2,0,0,0-2.535-1.34,8.571,8.571,0,0,0-3.019-.172,16.084,16.084,0,0,0-6.135,2.213,26.473,26.473,0,0,0-9.265,9.579c-1.848,3.248-2.987,7-2.478,10.192a5.652,5.652,0,0,0,2.042,3.7A6.8,6.8,0,0,0,110,223.923a13.9,13.9,0,0,0,4.653-.987,23.315,23.315,0,0,0,4.217-2.141,32.108,32.108,0,0,0,6.5-5.618,18.79,18.79,0,0,1-5.135,7.966,18.078,18.078,0,0,1-4.071,2.921l-1,.483c-.328.137-.652.246-.954.352a8.075,8.075,0,0,1-1.623.4,13.181,13.181,0,0,1-5.6-.322,8.645,8.645,0,0,1-4.565-3.162,9.467,9.467,0,0,1-1.691-4.869,15.9,15.9,0,0,1,.41-4.716,24.711,24.711,0,0,1,3.588-7.96,31.362,31.362,0,0,1,5.343-6.135,25.217,25.217,0,0,1,6.463-4.158,14.131,14.131,0,0,1,7.3-1.262,8.822,8.822,0,0,1,3.523,1.258,7.58,7.58,0,0,1,2.534,2.663,10.608,10.608,0,0,1,1.145,6.508,14.526,14.526,0,0,1-.762,3.257,20.26,20.26,0,0,1-1.545,3.216,25.732,25.732,0,0,1-1.728,2.508Z"></path><ellipse cx="223.894" cy="218.9" rx="20.161" ry="16.679" transform="translate(-28.045 32.964) rotate(-7.926)"></ellipse><path d="M242.189,224.973c-.074-.3.464-1.412.868-3.145a14.758,14.758,0,0,0,.046-6.509,14.485,14.485,0,0,0-3.583-6.483,15.351,15.351,0,0,0-5-3.467,22.425,22.425,0,0,0-8.185-1.792,23.937,23.937,0,0,0-8.523,1.382,20.447,20.447,0,0,0-7.3,4.43,15.277,15.277,0,0,0-4.249,6.831,12.512,12.512,0,0,0,3.243,12.3,19.212,19.212,0,0,0,11.912,5.322,23.815,23.815,0,0,0,12.151-2.156,22.4,22.4,0,0,0,4.741-3.066,20.379,20.379,0,0,0,3.4-3.9,14.466,14.466,0,0,1-2.345,4.994,19.231,19.231,0,0,1-4.85,4.525,19.661,19.661,0,0,1-10.445,3.328,26.709,26.709,0,0,1-6.623-.944,25.276,25.276,0,0,1-5.914-2.531,17.814,17.814,0,0,1-7.72-9.253,15.475,15.475,0,0,1-.806-5.745,15.688,15.688,0,0,1,1.323-5.428,18.358,18.358,0,0,1,2.855-4.555,21.948,21.948,0,0,1,3.838-3.489,24.846,24.846,0,0,1,18.217-4.139,21.513,21.513,0,0,1,8.127,3.089,16.3,16.3,0,0,1,5.607,5.964,11.767,11.767,0,0,1,.846,1.87c.118.345.251.693.355,1.057.08.37.161.747.243,1.128a6.8,6.8,0,0,1,.158,1.161c.025.393.084.781.075,1.172a13.728,13.728,0,0,1-.187,2.285A15.044,15.044,0,0,1,242.189,224.973Z"></path><path class="cls-6" d="M115.909,201.167a22.011,22.011,0,0,0-5,5.558,5.124,5.124,0,0,0,4.423-.117,7.539,7.539,0,0,0,3-2.874c.444-.707.769-1.665.082-2.224-.923-.751-2.429.05-3.324.824"></path><path class="cls-6" d="M115.071,202.311c-.131-.283.426-1.047,1.5-1.549a2.471,2.471,0,0,1,2.054-.05,2.415,2.415,0,0,1,.488.323,2.911,2.911,0,0,1,.212.218l.089.123.043.062.021.031s.007.012,0,0a.307.307,0,0,0-.023-.042l0,.006.007.012a2.569,2.569,0,0,1,.325.737,3.69,3.69,0,0,1-.606,2.781,8.714,8.714,0,0,1-2.1,2.494,7.315,7.315,0,0,1-4.595,1.634,5.4,5.4,0,0,1-2.572-.623l-.6-.295-.313-.157c-.115-.057-.125-.067-.19-.1a5.768,5.768,0,0,1-.635-.432c.579-.816,1.134-1.563,1.71-2.276a18.952,18.952,0,0,1,1.9-2.022,11.855,11.855,0,0,1,3.766-2.455c.019.251,0,.527,0,.772a2.456,2.456,0,0,0,.083.637,1,1,0,0,0,.547.682c.473.215,1.027-.015.709.088a6.485,6.485,0,0,0-1.687.9,10.1,10.1,0,0,0-.842.685c-.057.058-.153.127-.176.176a.752.752,0,0,0-.015.132.623.623,0,0,0,.034.229.714.714,0,0,0,.7.424,2.725,2.725,0,0,0,1.917-.961,4.541,4.541,0,0,0,.9-1.446.875.875,0,0,0,.021-.614c-.04-.088-.02-.108-.187-.2a3.6,3.6,0,0,0-1.24-.1A10.341,10.341,0,0,0,115.071,202.311Z"></path><path class="cls-6" d="M218.608,208.474a10.206,10.206,0,0,0-2.689,2.285c-.752.918-1.241,2.267-.308,2.984a3.246,3.246,0,0,0,2.579.232A11.072,11.072,0,0,0,224,210.661a1.419,1.419,0,0,0,.5-1.136c-.1-.457-.641-.722-1.131-.932a9.212,9.212,0,0,0-2.87-.869,3.357,3.357,0,0,0-2.8.947"></path><path class="cls-6" d="M217.667,208.652c-.088-.131.011-.457.355-.782a3.289,3.289,0,0,1,1.532-.735,5.527,5.527,0,0,1,1.951-.034c.306.042.591.1.847.149s.464.089.762.162c1.078.245,2.363.621,2.77,1.8a2.427,2.427,0,0,1-.315,2.023,6.18,6.18,0,0,1-.739.993l-.458.477c-.077.082-.158.157-.236.227l-.157.15a12.1,12.1,0,0,1-2.739,1.9,11.014,11.014,0,0,1-1.836.74,7.886,7.886,0,0,1-2.385.386,3.87,3.87,0,0,1-2.748-1.006,3.031,3.031,0,0,1-.924-2.478,4.473,4.473,0,0,1,1.05-2.414,4.079,4.079,0,0,1,.705-.684c.213-.172.43-.329.647-.471a7.4,7.4,0,0,1,2.569-1.069c-.187,1.067-.505,2.173-.73,3.054-.06.214-.117.42-.171.614s-.137.4-.068.388c.072.063.105.043.023.039a.471.471,0,0,0-.1.936,2.809,2.809,0,0,0,1.274-.036,7.563,7.563,0,0,0,1.467-.421,7.81,7.81,0,0,0,2.394-1.512,3.59,3.59,0,0,0,.537-.629.663.663,0,0,0,.153-.623.811.811,0,0,0-.484-.341l-.494-.171-.817-.294c-.281-.093-.547-.176-.808-.242a9.959,9.959,0,0,0-1.527-.3A2.7,2.7,0,0,0,217.667,208.652Z"></path><path class="cls-2" d="M251.155,210.347a58.827,58.827,0,1,1,46.391,92.944"></path><path d="M297.548,303.2c.5-.466,3.069-.676,6.766-1.263a67.506,67.506,0,0,0,13.421-3.5A61.8,61.8,0,0,0,325,295.087a60.54,60.54,0,0,0,6.612-4.274,48.868,48.868,0,0,0,9.191-8.994,59.016,59.016,0,0,0,12.233-32.773,54.849,54.849,0,0,0-9.118-33.449A56.168,56.168,0,0,0,308.8,191.959a58.053,58.053,0,0,0-38.445,5.41,63.706,63.706,0,0,0-17.884,13.915,36.929,36.929,0,0,1,5.031-10.626,46.23,46.23,0,0,1,9.532-10.254,48.179,48.179,0,0,1,11.63-6.837,39.821,39.821,0,0,1,5.331-1.784,32.375,32.375,0,0,1,4.287-.758,69.344,69.344,0,0,1,27.284,3.274,65.739,65.739,0,0,1,21.965,12.389,64.42,64.42,0,0,1,21.984,38.847,61.813,61.813,0,0,1-6.416,39,57.126,57.126,0,0,1-24.889,24.332,48.266,48.266,0,0,1-17.671,4.863A52.486,52.486,0,0,1,297.548,303.2Z"></path><path class="cls-3" d="M263.369,245c4.012-7.835,11.792-13.243,20.132-16.057s17.273-3.3,26.075-3.362c7.481-.052,15.283.268,21.869,3.816,12.547,6.76,16.682,24.036,11.7,37.387s-17.028,22.971-29.963,28.952c-7.733,3.575-17.994,5.647-23.887-.5-2.439-2.547-3.575-6.031-4.787-9.343-5.274-14.408-9.8-28.131-20.1-39.5"></path><path d="M264.433,246.354a25.619,25.619,0,0,1,4.713,5.028,71.185,71.185,0,0,1,7.465,12.173c2.421,4.851,4.549,10.223,6.438,15.12l2.659,6.891a43.256,43.256,0,0,0,2.331,5.353,13.464,13.464,0,0,0,2.426,3.26,11.646,11.646,0,0,0,3.325,2.148,14.188,14.188,0,0,0,3.992.884,21.232,21.232,0,0,0,4.294-.184c5.84-.828,11.5-3.724,16.892-6.952A60.327,60.327,0,0,0,333.239,278.2a40.911,40.911,0,0,0,5.127-7.416,34.238,34.238,0,0,0,3.155-8.1,30.44,30.44,0,0,0,.859-7.39,30.785,30.785,0,0,0-.851-7.352,27.372,27.372,0,0,0-2.53-6.812,22.465,22.465,0,0,0-4.162-5.7,22.966,22.966,0,0,0-12.214-6.257,73.2,73.2,0,0,0-14.4-1.09c-9.651-.078-18.788.6-26.584,3.491a38.543,38.543,0,0,0-10.4,5.72,29.248,29.248,0,0,0-7.151,8.065,24.839,24.839,0,0,1,5.777-9.72,36.524,36.524,0,0,1,11.044-7.9A50.161,50.161,0,0,1,293.22,223.9a54.387,54.387,0,0,1,9.279-.913c4.494.025,8.8.133,13.186.475a45.2,45.2,0,0,1,12.838,2.689,25.84,25.84,0,0,1,10.492,7.442,30.679,30.679,0,0,1,5.794,10.847,35.792,35.792,0,0,1-.714,22.892,47.161,47.161,0,0,1-12.267,17.614,71.566,71.566,0,0,1-16.62,11.278,43.2,43.2,0,0,1-9.042,3.487,28.884,28.884,0,0,1-4.746.819,20.145,20.145,0,0,1-4.837-.1,14.279,14.279,0,0,1-8.615-4.333,23.006,23.006,0,0,1-4.324-7.953c-1.918-5.244-3.672-10.317-5.474-15.15A142.855,142.855,0,0,0,271.263,257,73.082,73.082,0,0,0,264.433,246.354Z"></path><path class="cls-3" d="M169.676,204.322c-19.532-4.357-39.426,7.654-48.733,27.805a129.272,129.272,0,0,1,80.043,7.317C197.637,222.005,185.966,207.955,169.676,204.322Z"></path><g id="default"><path class="cls-3" d="M194.5,228.5c3,8-27,17-35,11.865-10.049-6.45-2.68-18.258-3-21.2.59,5.416-1.841,21.429-9,21.856-8,.477-18-5.367-19.695-13.142"></path><path d="M127.864,227.868c.392.153.835,1.269,1.778,2.693a18.184,18.184,0,0,0,4.393,4.55,21.081,21.081,0,0,0,6.507,3.268,15.368,15.368,0,0,0,5.753.671l.687-.094.343-.044a1.558,1.558,0,0,0,.232-.07,2.933,2.933,0,0,0,.791-.4,5.891,5.891,0,0,0,1.436-1.628,18.861,18.861,0,0,0,2.061-5.264,40.893,40.893,0,0,0,1.032-6.125c.1-1.038.159-2.077.175-3.087a18.618,18.618,0,0,0-.133-2.785l7.163-.78a11.157,11.157,0,0,1-.013,1.474c-.045.341-.1.607-.151.913-.055.321-.112.548-.169.774l-.171.693L158.945,225a27.563,27.563,0,0,0-.774,4.1,9.206,9.206,0,0,0,.81,5.162c.205.33.447.634.645.969.3.284.578.582.858.889.367.26.722.529,1.07.811a.666.666,0,0,0,.2.13,1.43,1.43,0,0,1,.159.093c.1.07.3.119.447.192a12.07,12.07,0,0,0,2.641.557,28.181,28.181,0,0,0,3.174.111,48.333,48.333,0,0,0,6.556-.6,60.056,60.056,0,0,0,12.027-3.1,21.368,21.368,0,0,0,4.7-2.4,5.963,5.963,0,0,0,1.511-1.447,2.225,2.225,0,0,0,.447-1.6,2.552,2.552,0,0,1,1.065,2.109,6.316,6.316,0,0,1-.905,3.112,17.821,17.821,0,0,1-4.686,5.21c-3.65,2.859-7.661,4.474-9.873,4.752a62.593,62.593,0,0,1-12.38.41,22.519,22.519,0,0,1-6.123-1.26,9.64,9.64,0,0,1-2.849-1.72c-.393-.331-.789-.647-1.165-.986l-1.024-1.158a12.082,12.082,0,0,1-2.579-5.42,17.2,17.2,0,0,1-.1-5.575,38.407,38.407,0,0,1,1.132-5q.332-1.15.658-2.283c.084-.347.208-.739.247-1.03.022-.145.072-.336.074-.44.016-.084-.057-.153.067-.246L158.07,219a29.967,29.967,0,0,1,.006,5.466,47.8,47.8,0,0,1-.676,5.114,26.566,26.566,0,0,1-3.459,9.509,9.294,9.294,0,0,1-4.291,3.7,7.869,7.869,0,0,1-2.859.471,17.732,17.732,0,0,1-2.4-.1A21.569,21.569,0,0,1,136,240.3a17.809,17.809,0,0,1-6.375-6.361,13.877,13.877,0,0,1-1.469-3.749c-.059-.27-.115-.523-.166-.758-.022-.24-.042-.461-.061-.661C127.9,228.38,127.878,228.072,127.864,227.868Z"></path></g><path d="M146.021,227.7c-12.136-.678-4.316-18.137-.3-23.479a48.2,48.2,0,0,1,25.132-17.723c3.422-.963,7.4-1.359,10.215,1.263,2.088,1.944,3.052,5.2,3.117,8.3a35.82,35.82,0,0,1-1.363,9.075c-1.333,5.554-2.429,19.854-6.56,23.033-5.558,4.278-7.41-5.747-11.529-7.322a26.114,26.114,0,0,0-5.143,14.447c-2.583,1.157-5.845-.137-7.431-2.165s-1.941-4.574-2.352-7.008-.988-4.986-2.882-6.807a10.381,10.381,0,0,0-1.42,8.9"></path></g></g></g></svg>